<svg width="461" height="231" viewBox="0 0 461 231" fill="none" xmlns="http://www.w3.org/2000/svg">
<path d="M230.25 62.8627C230.25 62.8627 275.987 95.9888 329.75 134.066L427.5 203.296V230.111L230.25 228.703V228.7H33V178.943L130.75 109.713C184.478 71.6611 230.19 38.5534 230.25 38.5101V62.8627ZM244.5 38.4066C244.5 27.1169 244.781 24.0058 245.765 24.3832C246.461 24.6502 287.749 53.7788 337.515 89.1146C387.282 124.45 435.313 158.549 444.25 164.889L460.5 176.417V206.348L457.25 203.907C455.459 202.561 406.861 168.04 349.25 127.191L244.5 52.9174V38.4066ZM214.735 0.0296631C215.719 -0.347243 216 2.76476 216 14.0541V28.5638L111.25 102.838C53.6371 143.689 5.038 178.211 3.25 179.554L0 181.995V152.064L16.25 140.536C25.187 134.196 73.2184 100.097 122.985 64.7621C172.751 29.4262 214.039 0.296663 214.735 0.0296631Z" fill="#2663EB"/>
</svg>
