<svg width="461" height="207" viewBox="0 0 461 207" fill="none" xmlns="http://www.w3.org/2000/svg">
<path d="M230.25 38.8631C230.312 38.908 276.023 72.0151 329.75 110.066L427.5 179.296V206.111L230.25 204.702V204.349L33 205.758V178.943L130.75 109.713C184.513 71.6357 230.25 38.5096 230.25 38.5096V38.8631ZM244.5 14.407C244.5 3.11771 244.781 0.00571496 245.765 0.382629C246.461 0.649629 287.749 29.7791 337.515 65.1151C387.282 100.45 435.313 134.549 444.25 140.889L460.5 152.417V182.348L457.25 179.907C455.462 178.564 406.863 144.042 349.25 103.191L244.5 28.9168V14.407ZM214.735 0.0300903C215.719 -0.347175 216 2.76404 216 14.0535V28.5643L111.25 102.838C53.6395 143.687 5.04192 178.208 3.25 179.554L0 181.995V152.064L16.25 140.536C25.1871 134.196 73.2184 100.096 122.985 64.7615C172.751 29.4257 214.039 0.297089 214.735 0.0300903Z" fill="#2663EB"/>
</svg>
